<mxfile host="app.diagrams.net" agent="Mozilla/5.0 (Windows NT 10.0; Win64; x64) AppleWebKit/537.36 (KHTML, like Gecko) Chrome/131.0.0.0 Safari/537.36" version="26.0.1">
  <diagram name="第 1 页" id="dWpgCxbgU0YnmVbF7x9A">
    <mxGraphModel dx="2501" dy="1915" grid="1" gridSize="10" guides="1" tooltips="1" connect="1" arrows="1" fold="1" page="1" pageScale="1" pageWidth="827" pageHeight="1169" math="0" shadow="0">
      <root>
        <mxCell id="0" />
        <mxCell id="1" parent="0" />
        <mxCell id="P2OzIf4hEwt9M2pPImRq-1" value="" style="rounded=0;whiteSpace=wrap;html=1;fillColor=#F2CC8F;strokeColor=#E07A5F;fontColor=#393C56;sketch=1;" vertex="1" parent="1">
          <mxGeometry x="518" y="15" width="240" height="350" as="geometry" />
        </mxCell>
        <mxCell id="P2OzIf4hEwt9M2pPImRq-2" value="BootROM" style="rounded=0;whiteSpace=wrap;html=1;fillColor=#e1d5e7;strokeColor=#9673a6;sketch=1;" vertex="1" parent="1">
          <mxGeometry x="-200" y="-30" width="160" height="60" as="geometry" />
        </mxCell>
        <mxCell id="P2OzIf4hEwt9M2pPImRq-3" value="SBL" style="rounded=0;whiteSpace=wrap;html=1;fillColor=#e1d5e7;strokeColor=#9673a6;sketch=1;" vertex="1" parent="1">
          <mxGeometry x="-200" y="160" width="160" height="60" as="geometry" />
        </mxCell>
        <mxCell id="P2OzIf4hEwt9M2pPImRq-4" value="" style="endArrow=classic;html=1;rounded=0;labelBackgroundColor=#F4F1DE;strokeColor=#E07A5F;fontColor=#393C56;sketch=1;" edge="1" parent="1" source="P2OzIf4hEwt9M2pPImRq-2" target="P2OzIf4hEwt9M2pPImRq-3">
          <mxGeometry relative="1" as="geometry">
            <mxPoint x="-190" y="370" as="sourcePoint" />
            <mxPoint x="-90" y="370" as="targetPoint" />
          </mxGeometry>
        </mxCell>
        <mxCell id="P2OzIf4hEwt9M2pPImRq-5" value="SPL" style="rounded=0;whiteSpace=wrap;html=1;fillColor=#f8cecc;strokeColor=#b85450;sketch=1;" vertex="1" parent="1">
          <mxGeometry x="150" y="160" width="160" height="60" as="geometry" />
        </mxCell>
        <mxCell id="P2OzIf4hEwt9M2pPImRq-6" value="BL31&lt;br&gt;(atf.img)" style="rounded=0;whiteSpace=wrap;html=1;fillColor=#b1ddf0;strokeColor=#10739e;sketch=1;" vertex="1" parent="1">
          <mxGeometry x="558" y="80" width="160" height="60" as="geometry" />
        </mxCell>
        <mxCell id="P2OzIf4hEwt9M2pPImRq-7" value="BL32&lt;br&gt;(tee.img)" style="rounded=0;whiteSpace=wrap;html=1;fillColor=#b1ddf0;strokeColor=#10739e;sketch=1;" vertex="1" parent="1">
          <mxGeometry x="558" y="180" width="160" height="60" as="geometry" />
        </mxCell>
        <mxCell id="P2OzIf4hEwt9M2pPImRq-8" value="BL33&lt;br&gt;(uboot.img)" style="rounded=0;whiteSpace=wrap;html=1;fillColor=#b1ddf0;strokeColor=#10739e;sketch=1;" vertex="1" parent="1">
          <mxGeometry x="558" y="280" width="160" height="60" as="geometry" />
        </mxCell>
        <mxCell id="P2OzIf4hEwt9M2pPImRq-9" value="Kernel&lt;br&gt;(Linux+initramfs+dtb)" style="rounded=0;whiteSpace=wrap;html=1;fillColor=#fad7ac;strokeColor=#b46504;sketch=1;" vertex="1" parent="1">
          <mxGeometry x="921" y="280" width="160" height="60" as="geometry" />
        </mxCell>
        <mxCell id="P2OzIf4hEwt9M2pPImRq-10" value="" style="endArrow=classic;html=1;rounded=0;exitX=1;exitY=0.5;exitDx=0;exitDy=0;entryX=0;entryY=0.5;entryDx=0;entryDy=0;labelBackgroundColor=#F4F1DE;strokeColor=#E07A5F;fontColor=#393C56;sketch=1;" edge="1" parent="1" source="P2OzIf4hEwt9M2pPImRq-3" target="P2OzIf4hEwt9M2pPImRq-5">
          <mxGeometry relative="1" as="geometry">
            <mxPoint x="10" y="280" as="sourcePoint" />
            <mxPoint x="110" y="280" as="targetPoint" />
          </mxGeometry>
        </mxCell>
        <mxCell id="P2OzIf4hEwt9M2pPImRq-11" value="" style="endArrow=classic;html=1;rounded=0;exitX=1;exitY=0.5;exitDx=0;exitDy=0;labelBackgroundColor=#F4F1DE;strokeColor=#E07A5F;fontColor=#393C56;sketch=1;entryX=0;entryY=0.5;entryDx=0;entryDy=0;" edge="1" parent="1" source="P2OzIf4hEwt9M2pPImRq-5" target="P2OzIf4hEwt9M2pPImRq-1">
          <mxGeometry relative="1" as="geometry">
            <mxPoint x="550" y="189.5" as="sourcePoint" />
            <mxPoint x="630" y="190" as="targetPoint" />
          </mxGeometry>
        </mxCell>
        <mxCell id="P2OzIf4hEwt9M2pPImRq-12" value="BL3x" style="text;html=1;strokeColor=none;fillColor=none;align=center;verticalAlign=middle;whiteSpace=wrap;rounded=0;fontColor=#393C56;sketch=1;" vertex="1" parent="1">
          <mxGeometry x="608" y="20" width="60" height="30" as="geometry" />
        </mxCell>
        <mxCell id="P2OzIf4hEwt9M2pPImRq-13" value="AX Verification" style="text;html=1;align=center;verticalAlign=middle;resizable=0;points=[];autosize=1;strokeColor=none;fillColor=none;fontColor=#393C56;sketch=1;" vertex="1" parent="1">
          <mxGeometry x="-220" y="50" width="90" height="20" as="geometry" />
        </mxCell>
        <mxCell id="P2OzIf4hEwt9M2pPImRq-14" value="1. FIT Verification&lt;br&gt;2. AVB Verification&lt;br&gt;3. AX Verification" style="text;html=1;align=left;verticalAlign=middle;resizable=0;points=[];autosize=1;strokeColor=none;fillColor=none;fontColor=#393C56;sketch=1;" vertex="1" parent="1">
          <mxGeometry x="370" y="100" width="110" height="50" as="geometry" />
        </mxCell>
        <mxCell id="P2OzIf4hEwt9M2pPImRq-15" value="" style="endArrow=classic;html=1;rounded=0;exitX=1;exitY=0.5;exitDx=0;exitDy=0;entryX=0;entryY=0.5;entryDx=0;entryDy=0;labelBackgroundColor=#F4F1DE;strokeColor=#E07A5F;fontColor=#393C56;sketch=1;" edge="1" parent="1" source="P2OzIf4hEwt9M2pPImRq-8" target="P2OzIf4hEwt9M2pPImRq-9">
          <mxGeometry relative="1" as="geometry">
            <mxPoint x="828" y="410" as="sourcePoint" />
            <mxPoint x="1068" y="410" as="targetPoint" />
          </mxGeometry>
        </mxCell>
        <mxCell id="P2OzIf4hEwt9M2pPImRq-16" value="rootfs" style="rounded=0;whiteSpace=wrap;html=1;fillColor=#fad7ac;strokeColor=#b46504;sketch=1;" vertex="1" parent="1">
          <mxGeometry x="921" y="480" width="160" height="60" as="geometry" />
        </mxCell>
        <mxCell id="P2OzIf4hEwt9M2pPImRq-17" value="" style="endArrow=classic;html=1;rounded=0;exitX=0.5;exitY=1;exitDx=0;exitDy=0;entryX=0.5;entryY=0;entryDx=0;entryDy=0;labelBackgroundColor=#F4F1DE;strokeColor=#E07A5F;fontColor=#393C56;sketch=1;" edge="1" parent="1" source="P2OzIf4hEwt9M2pPImRq-9" target="P2OzIf4hEwt9M2pPImRq-16">
          <mxGeometry relative="1" as="geometry">
            <mxPoint x="711" y="320" as="sourcePoint" />
            <mxPoint x="931" y="320" as="targetPoint" />
          </mxGeometry>
        </mxCell>
        <mxCell id="P2OzIf4hEwt9M2pPImRq-18" value="dm-verity" style="text;html=1;align=center;verticalAlign=middle;resizable=0;points=[];autosize=1;strokeColor=none;fillColor=none;fontColor=#393C56;" vertex="1" parent="1">
          <mxGeometry x="911" y="365" width="60" height="20" as="geometry" />
        </mxCell>
        <mxCell id="P2OzIf4hEwt9M2pPImRq-19" value="" style="ellipse;whiteSpace=wrap;html=1;aspect=fixed;fillColor=#eeeeee;strokeColor=#36393d;" vertex="1" parent="1">
          <mxGeometry x="-140" y="70" width="40" height="40" as="geometry" />
        </mxCell>
        <mxCell id="P2OzIf4hEwt9M2pPImRq-20" value="" style="verticalLabelPosition=bottom;verticalAlign=top;html=1;shape=mxgraph.basic.tick;fontSize=8;fillColor=#60a917;strokeColor=#2D7600;fontColor=#ffffff;" vertex="1" parent="1">
          <mxGeometry x="-130" y="80" width="20" height="20" as="geometry" />
        </mxCell>
        <mxCell id="P2OzIf4hEwt9M2pPImRq-21" value="&lt;font color=&quot;#60a017&quot; style=&quot;font-size: 12px;&quot;&gt;&lt;b style=&quot;&quot;&gt;Validate&lt;/b&gt;&lt;/font&gt;" style="text;html=1;strokeColor=none;fillColor=none;align=center;verticalAlign=middle;whiteSpace=wrap;rounded=0;fontSize=8;fontColor=#000000;" vertex="1" parent="1">
          <mxGeometry x="-100" y="75" width="60" height="30" as="geometry" />
        </mxCell>
        <mxCell id="P2OzIf4hEwt9M2pPImRq-22" value="AutoSAR/RTOS" style="rounded=0;whiteSpace=wrap;html=1;fillColor=#e1d5e7;strokeColor=#9673a6;sketch=1;" vertex="1" parent="1">
          <mxGeometry x="-200" y="350" width="160" height="60" as="geometry" />
        </mxCell>
        <mxCell id="P2OzIf4hEwt9M2pPImRq-23" value="" style="endArrow=classic;html=1;rounded=0;labelBackgroundColor=#F4F1DE;strokeColor=#E07A5F;fontColor=#393C56;sketch=1;" edge="1" parent="1">
          <mxGeometry relative="1" as="geometry">
            <mxPoint x="-120" y="220" as="sourcePoint" />
            <mxPoint x="-120" y="350" as="targetPoint" />
          </mxGeometry>
        </mxCell>
        <mxCell id="P2OzIf4hEwt9M2pPImRq-24" value="" style="ellipse;whiteSpace=wrap;html=1;aspect=fixed;fillColor=#eeeeee;strokeColor=#36393d;" vertex="1" parent="1">
          <mxGeometry x="30" y="170" width="40" height="40" as="geometry" />
        </mxCell>
        <mxCell id="P2OzIf4hEwt9M2pPImRq-25" value="" style="verticalLabelPosition=bottom;verticalAlign=top;html=1;shape=mxgraph.basic.tick;fontSize=8;fillColor=#60a917;strokeColor=#2D7600;fontColor=#ffffff;" vertex="1" parent="1">
          <mxGeometry x="40" y="180" width="20" height="20" as="geometry" />
        </mxCell>
        <mxCell id="P2OzIf4hEwt9M2pPImRq-26" value="&lt;font color=&quot;#60a017&quot; style=&quot;font-size: 12px;&quot;&gt;&lt;b style=&quot;&quot;&gt;Validate&lt;/b&gt;&lt;/font&gt;" style="text;html=1;strokeColor=none;fillColor=none;align=center;verticalAlign=middle;whiteSpace=wrap;rounded=0;fontSize=8;fontColor=#000000;" vertex="1" parent="1">
          <mxGeometry x="20" y="215" width="60" height="30" as="geometry" />
        </mxCell>
        <mxCell id="P2OzIf4hEwt9M2pPImRq-27" value="AX Verification" style="text;html=1;align=center;verticalAlign=middle;resizable=0;points=[];autosize=1;strokeColor=none;fillColor=none;fontColor=#393C56;sketch=1;" vertex="1" parent="1">
          <mxGeometry x="-230" y="245" width="90" height="20" as="geometry" />
        </mxCell>
        <mxCell id="P2OzIf4hEwt9M2pPImRq-28" value="AX Verification" style="text;html=1;align=center;verticalAlign=middle;resizable=0;points=[];autosize=1;strokeColor=none;fillColor=none;fontColor=#393C56;sketch=1;" vertex="1" parent="1">
          <mxGeometry x="5" y="140" width="90" height="20" as="geometry" />
        </mxCell>
        <mxCell id="P2OzIf4hEwt9M2pPImRq-29" value="" style="ellipse;whiteSpace=wrap;html=1;aspect=fixed;fillColor=#eeeeee;strokeColor=#36393d;" vertex="1" parent="1">
          <mxGeometry x="-140" y="265" width="40" height="40" as="geometry" />
        </mxCell>
        <mxCell id="P2OzIf4hEwt9M2pPImRq-30" value="" style="verticalLabelPosition=bottom;verticalAlign=top;html=1;shape=mxgraph.basic.tick;fontSize=8;fillColor=#60a917;strokeColor=#2D7600;fontColor=#ffffff;" vertex="1" parent="1">
          <mxGeometry x="-130" y="275" width="20" height="20" as="geometry" />
        </mxCell>
        <mxCell id="P2OzIf4hEwt9M2pPImRq-31" value="&lt;font color=&quot;#60a017&quot; style=&quot;font-size: 12px;&quot;&gt;&lt;b style=&quot;&quot;&gt;Validate&lt;/b&gt;&lt;/font&gt;" style="text;html=1;strokeColor=none;fillColor=none;align=center;verticalAlign=middle;whiteSpace=wrap;rounded=0;fontSize=8;fontColor=#000000;" vertex="1" parent="1">
          <mxGeometry x="-100" y="275" width="60" height="30" as="geometry" />
        </mxCell>
        <mxCell id="P2OzIf4hEwt9M2pPImRq-32" value="" style="ellipse;whiteSpace=wrap;html=1;aspect=fixed;fillColor=#eeeeee;strokeColor=#36393d;" vertex="1" parent="1">
          <mxGeometry x="390" y="170" width="40" height="40" as="geometry" />
        </mxCell>
        <mxCell id="P2OzIf4hEwt9M2pPImRq-33" value="" style="verticalLabelPosition=bottom;verticalAlign=top;html=1;shape=mxgraph.basic.tick;fontSize=8;fillColor=#60a917;strokeColor=#2D7600;fontColor=#ffffff;" vertex="1" parent="1">
          <mxGeometry x="400" y="180" width="20" height="20" as="geometry" />
        </mxCell>
        <mxCell id="P2OzIf4hEwt9M2pPImRq-34" value="&lt;font color=&quot;#60a017&quot; style=&quot;font-size: 12px;&quot;&gt;&lt;b style=&quot;&quot;&gt;Validate&lt;/b&gt;&lt;/font&gt;" style="text;html=1;strokeColor=none;fillColor=none;align=center;verticalAlign=middle;whiteSpace=wrap;rounded=0;fontSize=8;fontColor=#000000;" vertex="1" parent="1">
          <mxGeometry x="380" y="215" width="60" height="30" as="geometry" />
        </mxCell>
        <mxCell id="P2OzIf4hEwt9M2pPImRq-35" value="" style="ellipse;whiteSpace=wrap;html=1;aspect=fixed;fillColor=#eeeeee;strokeColor=#36393d;" vertex="1" parent="1">
          <mxGeometry x="818" y="290" width="40" height="40" as="geometry" />
        </mxCell>
        <mxCell id="P2OzIf4hEwt9M2pPImRq-36" value="" style="verticalLabelPosition=bottom;verticalAlign=top;html=1;shape=mxgraph.basic.tick;fontSize=8;fillColor=#60a917;strokeColor=#2D7600;fontColor=#ffffff;" vertex="1" parent="1">
          <mxGeometry x="828" y="300" width="20" height="20" as="geometry" />
        </mxCell>
        <mxCell id="P2OzIf4hEwt9M2pPImRq-37" value="&lt;font color=&quot;#60a017&quot; style=&quot;font-size: 12px;&quot;&gt;&lt;b style=&quot;&quot;&gt;Validate&lt;/b&gt;&lt;/font&gt;" style="text;html=1;strokeColor=none;fillColor=none;align=center;verticalAlign=middle;whiteSpace=wrap;rounded=0;fontSize=8;fontColor=#000000;" vertex="1" parent="1">
          <mxGeometry x="808" y="335" width="60" height="30" as="geometry" />
        </mxCell>
        <mxCell id="P2OzIf4hEwt9M2pPImRq-38" value="1. FIT Verification&lt;br&gt;2. AVB Verification&lt;br&gt;3. AX Verification" style="text;html=1;align=left;verticalAlign=middle;resizable=0;points=[];autosize=1;strokeColor=none;fillColor=none;fontColor=#393C56;sketch=1;" vertex="1" parent="1">
          <mxGeometry x="798" y="225" width="110" height="50" as="geometry" />
        </mxCell>
        <mxCell id="P2OzIf4hEwt9M2pPImRq-39" value="" style="ellipse;whiteSpace=wrap;html=1;aspect=fixed;fillColor=#eeeeee;strokeColor=#36393d;" vertex="1" parent="1">
          <mxGeometry x="981" y="380" width="40" height="40" as="geometry" />
        </mxCell>
        <mxCell id="P2OzIf4hEwt9M2pPImRq-40" value="" style="verticalLabelPosition=bottom;verticalAlign=top;html=1;shape=mxgraph.basic.tick;fontSize=8;fillColor=#60a917;strokeColor=#2D7600;fontColor=#ffffff;" vertex="1" parent="1">
          <mxGeometry x="991" y="390" width="20" height="20" as="geometry" />
        </mxCell>
        <mxCell id="P2OzIf4hEwt9M2pPImRq-41" value="&lt;font color=&quot;#60a017&quot; style=&quot;font-size: 12px;&quot;&gt;&lt;b style=&quot;&quot;&gt;Validate&lt;/b&gt;&lt;/font&gt;" style="text;html=1;strokeColor=none;fillColor=none;align=center;verticalAlign=middle;whiteSpace=wrap;rounded=0;fontSize=8;fontColor=#000000;" vertex="1" parent="1">
          <mxGeometry x="1031" y="385" width="60" height="30" as="geometry" />
        </mxCell>
        <mxCell id="P2OzIf4hEwt9M2pPImRq-42" value="" style="endArrow=none;dashed=1;html=1;rounded=0;" edge="1" parent="1">
          <mxGeometry width="50" height="50" relative="1" as="geometry">
            <mxPoint x="120" y="500" as="sourcePoint" />
            <mxPoint x="120" y="-120" as="targetPoint" />
          </mxGeometry>
        </mxCell>
        <mxCell id="P2OzIf4hEwt9M2pPImRq-43" value="&lt;font style=&quot;font-size: 18px;&quot;&gt;R5F&lt;/font&gt;" style="text;html=1;strokeColor=none;fillColor=none;align=center;verticalAlign=middle;whiteSpace=wrap;rounded=0;" vertex="1" parent="1">
          <mxGeometry x="-80" y="-120" width="60" height="30" as="geometry" />
        </mxCell>
        <mxCell id="P2OzIf4hEwt9M2pPImRq-44" value="&lt;font style=&quot;font-size: 18px;&quot;&gt;A55&lt;/font&gt;" style="text;html=1;strokeColor=none;fillColor=none;align=center;verticalAlign=middle;whiteSpace=wrap;rounded=0;" vertex="1" parent="1">
          <mxGeometry x="280" y="-120" width="60" height="30" as="geometry" />
        </mxCell>
      </root>
    </mxGraphModel>
  </diagram>
</mxfile>
